<svg width="221" height="43" viewBox="0 0 221 43" fill="none" xmlns="http://www.w3.org/2000/svg">
<rect width="221" height="43" rx="4" fill="url(#paint0_linear_16443_2327)"/>
<path d="M66.204 15.848C67.42 15.848 68.4707 16.0773 69.356 16.536C70.252 16.984 70.9347 17.6293 71.404 18.472C71.884 19.3147 72.124 20.3067 72.124 21.448C72.124 22.5893 71.884 23.5813 71.404 24.424C70.9347 25.256 70.252 25.896 69.356 26.344C68.4707 26.7813 67.42 27 66.204 27H62.732V15.848H66.204ZM66.204 25.8C67.644 25.8 68.7427 25.4213 69.5 24.664C70.2573 23.896 70.636 22.824 70.636 21.448C70.636 20.0613 70.252 18.9787 69.484 18.2C68.7267 17.4213 67.6333 17.032 66.204 17.032H64.188V25.8H66.204ZM77.8685 27.144C77.0472 27.144 76.3005 26.9573 75.6285 26.584C74.9672 26.2107 74.4445 25.6827 74.0605 25C73.6872 24.3067 73.5005 23.5067 73.5005 22.6C73.5005 21.704 73.6925 20.9147 74.0765 20.232C74.4712 19.5387 75.0045 19.0107 75.6765 18.648C76.3485 18.2747 77.1005 18.088 77.9325 18.088C78.7645 18.088 79.5165 18.2747 80.1885 18.648C80.8605 19.0107 81.3885 19.5333 81.7725 20.216C82.1672 20.8987 82.3645 21.6933 82.3645 22.6C82.3645 23.5067 82.1618 24.3067 81.7565 25C81.3618 25.6827 80.8232 26.2107 80.1405 26.584C79.4578 26.9573 78.7005 27.144 77.8685 27.144ZM77.8685 25.864C78.3912 25.864 78.8818 25.7413 79.3405 25.496C79.7992 25.2507 80.1672 24.8827 80.4445 24.392C80.7325 23.9013 80.8765 23.304 80.8765 22.6C80.8765 21.896 80.7378 21.2987 80.4605 20.808C80.1832 20.3173 79.8205 19.9547 79.3725 19.72C78.9245 19.4747 78.4392 19.352 77.9165 19.352C77.3832 19.352 76.8925 19.4747 76.4445 19.72C76.0072 19.9547 75.6552 20.3173 75.3885 20.808C75.1218 21.2987 74.9885 21.896 74.9885 22.6C74.9885 23.3147 75.1165 23.9173 75.3725 24.408C75.6392 24.8987 75.9912 25.2667 76.4285 25.512C76.8658 25.7467 77.3458 25.864 77.8685 25.864ZM88.5509 18.072C89.6175 18.072 90.4815 18.3973 91.1429 19.048C91.8042 19.688 92.1349 20.616 92.1349 21.832V27H90.6949V22.04C90.6949 21.1653 90.4762 20.4987 90.0389 20.04C89.6015 19.5707 89.0042 19.336 88.2469 19.336C87.4789 19.336 86.8655 19.576 86.4069 20.056C85.9589 20.536 85.7349 21.2347 85.7349 22.152V27H84.2789V18.232H85.7349V19.48C86.0229 19.032 86.4122 18.6853 86.9029 18.44C87.4042 18.1947 87.9535 18.072 88.5509 18.072ZM93.9693 22.584C93.9693 21.688 94.1506 20.904 94.5133 20.232C94.8759 19.5493 95.3719 19.0213 96.0013 18.648C96.6413 18.2747 97.3506 18.088 98.1293 18.088C98.8973 18.088 99.5639 18.2533 100.129 18.584C100.695 18.9147 101.116 19.3307 101.393 19.832V18.232H102.865V27H101.393V25.368C101.105 25.88 100.673 26.3067 100.097 26.648C99.5319 26.9787 98.8706 27.144 98.1133 27.144C97.3346 27.144 96.6306 26.952 96.0013 26.568C95.3719 26.184 94.8759 25.6453 94.5133 24.952C94.1506 24.2587 93.9693 23.4693 93.9693 22.584ZM101.393 22.6C101.393 21.9387 101.26 21.3627 100.993 20.872C100.727 20.3813 100.364 20.008 99.9053 19.752C99.4573 19.4853 98.9613 19.352 98.4173 19.352C97.8733 19.352 97.3773 19.48 96.9293 19.736C96.4813 19.992 96.1239 20.3653 95.8573 20.856C95.5906 21.3467 95.4573 21.9227 95.4573 22.584C95.4573 23.256 95.5906 23.8427 95.8573 24.344C96.1239 24.8347 96.4813 25.2133 96.9293 25.48C97.3773 25.736 97.8733 25.864 98.4173 25.864C98.9613 25.864 99.4573 25.736 99.9053 25.48C100.364 25.2133 100.727 24.8347 100.993 24.344C101.26 23.8427 101.393 23.2613 101.393 22.6ZM107.102 19.432V24.6C107.102 25.0267 107.192 25.3307 107.374 25.512C107.555 25.6827 107.87 25.768 108.318 25.768H109.39V27H108.078C107.267 27 106.659 26.8133 106.254 26.44C105.848 26.0667 105.646 25.4533 105.646 24.6V19.432H104.51V18.232H105.646V16.024H107.102V18.232H109.39V19.432H107.102ZM119.154 22.28C119.154 22.5573 119.138 22.8507 119.106 23.16H112.098C112.151 24.024 112.445 24.7013 112.978 25.192C113.522 25.672 114.178 25.912 114.946 25.912C115.575 25.912 116.098 25.768 116.514 25.48C116.941 25.1813 117.239 24.7867 117.41 24.296H118.978C118.743 25.1387 118.274 25.8267 117.57 26.36C116.866 26.8827 115.991 27.144 114.946 27.144C114.114 27.144 113.367 26.9573 112.706 26.584C112.055 26.2107 111.543 25.6827 111.17 25C110.797 24.3067 110.61 23.5067 110.61 22.6C110.61 21.6933 110.791 20.8987 111.154 20.216C111.517 19.5333 112.023 19.0107 112.674 18.648C113.335 18.2747 114.093 18.088 114.946 18.088C115.778 18.088 116.514 18.2693 117.154 18.632C117.794 18.9947 118.285 19.496 118.626 20.136C118.978 20.7653 119.154 21.48 119.154 22.28ZM117.65 21.976C117.65 21.4213 117.527 20.9467 117.282 20.552C117.037 20.1467 116.701 19.8427 116.274 19.64C115.858 19.4267 115.394 19.32 114.882 19.32C114.146 19.32 113.517 19.5547 112.994 20.024C112.482 20.4933 112.189 21.144 112.114 21.976H117.65Z" fill="white"/>
<path d="M156.5 17.75C156.5 15.2647 154.401 13.25 151.812 13.25C149.877 13.25 148.215 14.3763 147.5 15.9834C146.785 14.3763 145.123 13.25 143.188 13.25C140.599 13.25 138.5 15.2647 138.5 17.75C138.5 24.9706 147.5 29.75 147.5 29.75C147.5 29.75 156.5 24.9706 156.5 17.75Z" stroke="white" stroke-width="1.5" stroke-linecap="round" stroke-linejoin="round"/>
<defs>
<linearGradient id="paint0_linear_16443_2327" x1="-68.6128" y1="-2.2838" x2="-61.8255" y2="67.3345" gradientUnits="userSpaceOnUse">
<stop stop-color="#F9A8D4"/>
<stop offset="0.666667" stop-color="#F472B6"/>
</linearGradient>
</defs>
</svg>
